<svg width="22" height="28" viewBox="0 0 22 28" fill="none" xmlns="http://www.w3.org/2000/svg">
<path d="M16.5662 5.13258C15.0352 3.36406 13.3126 1.77098 11.43 0.382579C11.304 0.294378 11.1538 0.24707 11 0.24707C10.8462 0.24707 10.696 0.294378 10.57 0.382579C8.68742 1.77098 6.96479 3.36406 5.43375 5.13258C2.0425 9.03258 0.25 13.1363 0.25 17.0001C0.25 19.8512 1.38259 22.5855 3.3986 24.6015C5.41462 26.6175 8.14892 27.7501 11 27.7501C13.8511 27.7501 16.5854 26.6175 18.6014 24.6015C20.6174 22.5855 21.75 19.8512 21.75 17.0001C21.75 13.1363 19.9575 9.03258 16.5662 5.13258ZM11 26.2501C8.54766 26.2471 6.19662 25.2716 4.46255 23.5375C2.72848 21.8035 1.75298 19.4524 1.75 17.0001C1.75 9.54758 9.125 3.38383 11 1.93633C12.875 3.38383 20.25 9.54758 20.25 17.0001C20.247 19.4524 19.2715 21.8035 17.5374 23.5375C15.8034 25.2716 13.4523 26.2471 11 26.2501ZM17.74 18.1251C17.4899 19.5226 16.8177 20.81 15.8138 21.8138C14.8099 22.8177 13.5225 23.49 12.125 23.7401C12.0836 23.7464 12.0419 23.7497 12 23.7501C11.8114 23.7508 11.6295 23.6805 11.4904 23.5531C11.3514 23.4258 11.2654 23.2507 11.2497 23.0628C11.2339 22.8749 11.2895 22.6879 11.4054 22.5392C11.5213 22.3904 11.6889 22.2908 11.875 22.2601C14.0475 21.8951 15.8913 20.0501 16.26 17.8751C16.2932 17.6788 16.4029 17.5038 16.5651 17.3884C16.6455 17.3313 16.7362 17.2906 16.8323 17.2686C16.9284 17.2465 17.0278 17.2437 17.125 17.2601C17.2222 17.2765 17.3152 17.3119 17.3987 17.3642C17.4822 17.4166 17.5545 17.4849 17.6116 17.5652C17.6688 17.6455 17.7095 17.7363 17.7315 17.8324C17.7535 17.9284 17.7564 18.0279 17.74 18.1251Z" fill="#3B3B54"/>
</svg>
