<svg width="26" height="29" viewBox="0 0 26 29" fill="none" xmlns="http://www.w3.org/2000/svg">
<path d="M16.625 22.4162L12.625 28.4162C12.5146 28.582 12.3429 28.6971 12.1476 28.7363C11.9523 28.7754 11.7495 28.7354 11.5837 28.625C11.418 28.5146 11.3029 28.3429 11.2637 28.1476C11.2246 27.9523 11.2646 27.7495 11.375 27.5837L15.375 21.5837C15.4854 21.418 15.6571 21.3029 15.8524 21.2637C16.0477 21.2246 16.2505 21.2646 16.4162 21.375C16.582 21.4854 16.6971 21.6571 16.7363 21.8524C16.7754 22.0476 16.7354 22.2505 16.625 22.4162ZM25.75 9.49998C25.747 11.9523 24.7715 14.3034 23.0374 16.0374C21.3034 17.7715 18.9523 18.747 16.5 18.75H13.4012L9.62499 24.4162C9.57032 24.4983 9.50003 24.5688 9.41812 24.6237C9.33621 24.6786 9.24428 24.7169 9.1476 24.7363C9.05091 24.7556 8.95135 24.7558 8.8546 24.7367C8.75785 24.7176 8.66581 24.6796 8.58374 24.625C8.50166 24.5703 8.43115 24.5 8.37624 24.4181C8.32133 24.3362 8.2831 24.2443 8.26371 24.1476C8.24433 24.0509 8.24418 23.9513 8.26327 23.8546C8.28236 23.7578 8.32032 23.6658 8.37499 23.5837L11.5987 18.75H6.49999C5.62788 18.7456 4.76635 18.5587 3.97079 18.2013C3.17524 17.844 2.46328 17.3241 1.88069 16.6751C1.29811 16.0261 0.857796 15.2624 0.58807 14.433C0.318344 13.6037 0.225176 12.727 0.314558 11.8595C0.40394 10.992 0.673892 10.1528 1.10706 9.39582C1.54022 8.63888 2.12701 7.98096 2.82968 7.46439C3.53235 6.94782 4.33536 6.58403 5.18706 6.39641C6.03876 6.20878 6.9203 6.20148 7.77499 6.37498C8.51184 4.32326 9.94895 2.59729 11.8333 1.50099C13.7176 0.404681 15.9283 0.00833556 18.0761 0.381738C20.2239 0.75514 22.1711 1.87435 23.5748 3.54229C24.9786 5.21023 25.7488 7.31995 25.75 9.49998ZM24.25 9.49998C24.2434 7.48647 23.4542 5.55439 22.0492 4.11211C20.6442 2.66983 18.7334 1.83035 16.7208 1.77111C14.7081 1.71187 12.7513 2.4375 11.2639 3.79464C9.77644 5.15178 8.87497 7.03409 8.74999 9.04373C8.73838 9.24264 8.64824 9.4288 8.49938 9.56124C8.35052 9.69369 8.15515 9.76158 7.95624 9.74998C7.75732 9.73838 7.57117 9.64823 7.43872 9.49937C7.30627 9.35052 7.23838 9.15514 7.24999 8.95623C7.2721 8.5789 7.31677 8.20323 7.38374 7.83123C6.7346 7.70961 6.06723 7.72468 5.42425 7.8755C4.78126 8.02633 4.1768 8.30957 3.64945 8.70716C3.1221 9.10474 2.68345 9.60793 2.36152 10.1846C2.03959 10.7612 1.84145 11.3987 1.77975 12.0562C1.71806 12.7138 1.79416 13.377 2.0032 14.0035C2.21224 14.6299 2.54963 15.2059 2.99382 15.6947C3.438 16.1834 3.97923 16.5742 4.58293 16.842C5.18664 17.1098 5.83955 17.2487 6.49999 17.25H16.5C18.5547 17.2477 20.5246 16.4304 21.9775 14.9775C23.4304 13.5246 24.2477 11.5547 24.25 9.49998Z" fill="#3B3B54"/>
</svg>
